/vscmnt/brussel_pixiu_data/_data_brussel/112/vsc11236/PredSimResults/SUBJ04mtu3D/worker5.mot
version=1
nRows=4
nColumns=50
inDegrees=yes
endheader
                time	         pelvis_tilt	         pelvis_list	     pelvis_rotation	           pelvis_tx	           pelvis_ty	           pelvis_tz	       hip_flexion_r	     hip_adduction_r	      hip_rotation_r	        knee_angle_r	       ankle_angle_r	         mtp_angle_r	       hip_flexion_l	     hip_adduction_l	      hip_rotation_l	        knee_angle_l	       ankle_angle_l	         mtp_angle_l	    lumbar_extension	      lumbar_bending	     lumbar_rotation	 ercspn_r/activation	 intobl_r/activation	 extobl_r/activation	    abd_r/activation	    add_r/activation	hamstrings_r/activation	bifemsh_r/activation	glut_max_r/activation	iliopsoas_r/activation	rect_fem_r/activation	  vasti_r/activation	gastroc_r/activation	 soleus_r/activation	tib_ant_r/activation	 ercspn_l/activation	 intobl_l/activation	 extobl_l/activation	    abd_l/activation	    add_l/activation	hamstrings_l/activation	bifemsh_l/activation	glut_max_l/activation	iliopsoas_l/activation	rect_fem_l/activation	  vasti_l/activation	gastroc_l/activation	 soleus_l/activation	tib_ant_l/activation	
          0.00000000	         -2.90406384	         -0.70203052	         13.22955759	          0.00000000	          0.87611541	         -0.01412391	         27.25369632	         -2.65543057	         -9.38747853	         -3.90100605	          7.85672167	          0.23699769	        -10.80242159	         -2.76242739	         -4.60982333	        -14.79026334	         12.16671421	         28.18528546	        -13.04456646	         -2.72855189	         -6.42223186	          0.04154257	          0.22475255	          0.02354509	          0.01000040	          0.18531782	          0.10148584	          0.09048838	          0.03011021	          0.16049853	          0.01014051	          0.01000104	          0.01944940	          0.01554299	          0.16664449	          0.01485297	          0.01000096	          0.01000350	          0.03871481	          0.01000956	          0.01890344	          0.24588892	          0.01553389	          0.01000541	          0.01000354	          0.01000177	          0.34206141	          0.31333352	          0.01000094	
          0.01480685	         -2.96366942	         -0.73496114	         12.79266577	          0.01845191	          0.87360280	         -0.01332832	         27.21882510	         -2.37917555	         -9.60771147	         -5.58520344	          7.09668529	          0.22713596	        -11.68725272	         -3.01025094	         -5.52147084	        -15.34903316	         11.40506902	         29.74222039	        -12.47782648	         -2.10344334	         -6.45120454	          0.03332436	          0.18586570	          0.01888490	          0.05005159	          0.14864306	          0.09051035	          0.07258164	          0.07820496	          0.12873052	          0.01005403	          0.01000127	          0.01560016	          0.01246692	          0.21820010	          0.03785474	          0.01000041	          0.01000167	          0.03105190	          0.01000493	          0.01929320	          0.19788635	          0.01245965	          0.06834761	          0.01000900	          0.01000198	          0.32063388	          0.29022577	          0.01000044	
          0.02961369	         -3.01318450	         -0.80537226	         12.27856197	          0.03697484	          0.87170133	         -0.01239815	         27.10726594	         -2.06042335	         -9.87439176	         -7.10831733	          6.23932961	          0.20252163	        -12.30999722	         -3.30328295	         -6.46417233	        -16.37584371	         10.38989439	         31.37009778	        -11.91915906	         -1.41311047	         -6.45432883	          0.04559822	          0.14907686	          0.01514717	          0.08628985	          0.13564046	          0.08095163	          0.05821818	          0.08363177	          0.10325047	          0.01007812	          0.04629236	          0.01251312	          0.01000370	          0.25488218	          0.06235106	          0.01000042	          0.01000128	          0.02490573	          0.01000467	          0.02075003	          0.15872810	          0.01000118	          0.07836573	          0.01000663	          0.01000160	          0.29093121	          0.26213631	          0.01000050	
          0.04442054	         -3.05476299	         -0.90445413	         11.70217186	          0.05535622	          0.87066355	         -0.01132500	         26.90558661	         -1.70161296	        -10.17426424	         -8.49212988	          5.54606886	          0.17510728	        -12.60481906	         -3.64810850	         -7.42773454	        -17.94169846	          9.07526461	         32.98970518	        -11.39211567	         -0.67545809	         -6.43182609	          0.04087851	          0.11956962	          0.01214951	          0.11568201	          0.12400990	          0.07444375	          0.04669825	          0.06749579	          0.08281379	          0.01006288	          0.07932884	          0.01003809	          0.01000227	          0.27960469	          0.08344972	          0.01000057	          0.01000126	          0.01997609	          0.01000679	          0.02187329	          0.12731569	          0.01000134	          0.06286228	          0.01000296	          0.01000126	          0.24390911	          0.22895556	          0.01000048	
